<?xml version="1.0" encoding="UTF-8" standalone="no"?><svg xmlns="http://www.w3.org/2000/svg" xmlns:xlink="http://www.w3.org/1999/xlink" contentStyleType="text/css" height="1015px" preserveAspectRatio="none" style="width:281px;height:1015px;background:#FFFFFF;" version="1.1" viewBox="0 0 281 1015" width="281px" zoomAndPan="magnify"><defs/><g><ellipse cx="139" cy="20" fill="#222222" rx="10" ry="10" style="stroke:#222222;stroke-width:1.0;"/><rect fill="#F1F1F1" height="120.5625" rx="12.5" ry="12.5" style="stroke:#181818;stroke-width:0.5;" width="195" x="41.5" y="50"/><text fill="#000000" font-family="sans-serif" font-size="12" lengthAdjust="spacing" textLength="127" x="51.5" y="72.457">Admin creates Product:</text><line style="stroke:#181818;stroke-width:1.0;" x1="41.5" x2="236.5" y1="80.0938" y2="80.0938"/><text fill="#000000" font-family="sans-serif" font-size="12" lengthAdjust="spacing" textLength="175" x="51.5" y="97.5508">Admin creates Product template</text><text fill="#000000" font-family="sans-serif" font-size="12" lengthAdjust="spacing" textLength="153" x="51.5" y="112.6445">Admin fills Product template</text><text fill="#000000" font-family="sans-serif" font-size="12" lengthAdjust="spacing" textLength="155" x="51.5" y="127.7383">Admin sets Product_isActive</text><text fill="#000000" font-family="sans-serif" font-size="12" lengthAdjust="spacing" textLength="156" x="51.5" y="142.832">Admin sets Product_amount</text><text fill="#000000" font-family="sans-serif" font-size="12" lengthAdjust="spacing" textLength="160" x="51.5" y="157.9258">Admin save Product template</text><rect fill="#F1F1F1" height="35.0938" rx="12.5" ry="12.5" style="stroke:#181818;stroke-width:0.5;" width="168" x="55" y="190.5625"/><text fill="#000000" font-family="sans-serif" font-size="12" lengthAdjust="spacing" textLength="148" x="65" y="213.0195">Customer choose category</text><rect fill="#F1F1F1" height="35.0938" rx="12.5" ry="12.5" style="stroke:#181818;stroke-width:0.5;" width="217" x="30.5" y="245.6563"/><text fill="#000000" font-family="sans-serif" font-size="12" lengthAdjust="spacing" textLength="197" x="40.5" y="268.1133">Customer search Product in catalog</text><rect fill="#F1F1F1" height="75.2813" rx="12.5" ry="12.5" style="stroke:#181818;stroke-width:0.5;" width="212" x="33" y="349.668"/><text fill="#000000" font-family="sans-serif" font-size="12" lengthAdjust="spacing" textLength="143" x="43" y="372.125">Customer explore Product</text><line style="stroke:#181818;stroke-width:1.0;" x1="33" x2="245" y1="379.7617" y2="379.7617"/><text fill="#000000" font-family="sans-serif" font-size="12" lengthAdjust="spacing" textLength="126" x="43" y="397.2188">Customer click product</text><text fill="#000000" font-family="sans-serif" font-size="12" lengthAdjust="spacing" textLength="192" x="43" y="412.3125">Customer go throu product images</text><polygon fill="#F1F1F1" points="65.5,300.75,212.5,300.75,224.5,312.75,212.5,324.75,65.5,324.75,53.5,312.75,65.5,300.75" style="stroke:#181818;stroke-width:0.5;"/><text fill="#000000" font-family="sans-serif" font-size="11" lengthAdjust="spacing" textLength="12" x="143" y="336.1689">no</text><text fill="#000000" font-family="sans-serif" font-size="11" lengthAdjust="spacing" textLength="147" x="65.5" y="317.251">Customer asure abaut Product</text><text fill="#000000" font-family="sans-serif" font-size="11" lengthAdjust="spacing" textLength="18" x="224.5" y="310.333">yes</text><polygon fill="#F1F1F1" points="139,444.9492,151,456.9492,139,468.9492,127,456.9492,139,444.9492" style="stroke:#181818;stroke-width:0.5;"/><rect fill="#F1F1F1" height="35.0938" rx="12.5" ry="12.5" style="stroke:#181818;stroke-width:0.5;" width="203" x="37.5" y="488.9492"/><text fill="#000000" font-family="sans-serif" font-size="12" lengthAdjust="spacing" textLength="183" x="47.5" y="511.4063">Customer add Product to buscket</text><rect fill="#F1F1F1" height="35.0938" rx="12.5" ry="12.5" style="stroke:#181818;stroke-width:0.5;" width="155" x="61.5" y="544.043"/><text fill="#000000" font-family="sans-serif" font-size="12" lengthAdjust="spacing" textLength="135" x="71.5" y="566.5">Customer Open Buscket</text><rect fill="#F1F1F1" height="35.0938" rx="12.5" ry="12.5" style="stroke:#181818;stroke-width:0.5;" width="150" x="64" y="599.1367"/><text fill="#000000" font-family="sans-serif" font-size="12" lengthAdjust="spacing" textLength="130" x="74" y="621.5938">Customer explore order</text><rect fill="#F1F1F1" height="35.0938" rx="12.5" ry="12.5" style="stroke:#181818;stroke-width:0.5;" width="256" x="11" y="654.2305"/><text fill="#000000" font-family="sans-serif" font-size="12" lengthAdjust="spacing" textLength="236" x="21" y="676.6875">Customer change amount of items in order</text><rect fill="#F1F1F1" height="35.0938" rx="12.5" ry="12.5" style="stroke:#181818;stroke-width:0.5;" width="179" x="49.5" y="709.3242"/><text fill="#000000" font-family="sans-serif" font-size="12" lengthAdjust="spacing" textLength="159" x="59.5" y="731.7813">Customer fills contact details</text><rect fill="#F1F1F1" height="35.0938" rx="12.5" ry="12.5" style="stroke:#181818;stroke-width:0.5;" width="148" x="65" y="764.418"/><text fill="#000000" font-family="sans-serif" font-size="12" lengthAdjust="spacing" textLength="128" x="75" y="786.875">Customer makes order</text><rect fill="#F1F1F1" height="35.0938" rx="12.5" ry="12.5" style="stroke:#181818;stroke-width:0.5;" width="159" x="59.5" y="819.5117"/><text fill="#000000" font-family="sans-serif" font-size="12" lengthAdjust="spacing" textLength="139" x="69.5" y="841.9688">Notification sent to Admin</text><rect fill="#F1F1F1" height="35.0938" rx="12.5" ry="12.5" style="stroke:#181818;stroke-width:0.5;" width="135" x="71.5" y="874.6055"/><text fill="#000000" font-family="sans-serif" font-size="12" lengthAdjust="spacing" textLength="115" x="81.5" y="897.0625">Admin process order</text><rect fill="#F1F1F1" height="35.0938" rx="12.5" ry="12.5" style="stroke:#181818;stroke-width:0.5;" width="144" x="67" y="929.6992"/><text fill="#000000" font-family="sans-serif" font-size="12" lengthAdjust="spacing" textLength="124" x="77" y="952.1563">Admin set order status</text><ellipse cx="139" cy="994.793" fill="none" rx="10" ry="10" style="stroke:#222222;stroke-width:1.5;"/><line style="stroke:#222222;stroke-width:2.5;" x1="132.8128" x2="145.1872" y1="988.6058" y2="1000.9802"/><line style="stroke:#222222;stroke-width:2.5;" x1="145.1872" x2="132.8128" y1="988.6058" y2="1000.9802"/><line style="stroke:#181818;stroke-width:1.0;" x1="139" x2="139" y1="30" y2="50"/><polygon fill="#181818" points="135,40,139,50,143,40,139,44" style="stroke:#181818;stroke-width:1.0;"/><line style="stroke:#181818;stroke-width:1.0;" x1="139" x2="139" y1="170.5625" y2="190.5625"/><polygon fill="#181818" points="135,180.5625,139,190.5625,143,180.5625,139,184.5625" style="stroke:#181818;stroke-width:1.0;"/><line style="stroke:#181818;stroke-width:1.0;" x1="139" x2="139" y1="225.6563" y2="245.6563"/><polygon fill="#181818" points="135,235.6563,139,245.6563,143,235.6563,139,239.6563" style="stroke:#181818;stroke-width:1.0;"/><line style="stroke:#181818;stroke-width:1.0;" x1="139" x2="139" y1="324.75" y2="349.668"/><polygon fill="#181818" points="135,339.668,139,349.668,143,339.668,139,343.668" style="stroke:#181818;stroke-width:1.0;"/><line style="stroke:#181818;stroke-width:1.0;" x1="224.5" x2="255" y1="312.75" y2="312.75"/><polygon fill="#181818" points="251,377.3086,255,387.3086,259,377.3086,255,381.3086" style="stroke:#181818;stroke-width:1.0;"/><line style="stroke:#181818;stroke-width:1.0;" x1="255" x2="255" y1="312.75" y2="456.9492"/><line style="stroke:#181818;stroke-width:1.0;" x1="255" x2="151" y1="456.9492" y2="456.9492"/><polygon fill="#181818" points="161,452.9492,151,456.9492,161,460.9492,157,456.9492" style="stroke:#181818;stroke-width:1.0;"/><line style="stroke:#181818;stroke-width:1.0;" x1="139" x2="139" y1="424.9492" y2="444.9492"/><polygon fill="#181818" points="135,434.9492,139,444.9492,143,434.9492,139,438.9492" style="stroke:#181818;stroke-width:1.0;"/><line style="stroke:#181818;stroke-width:1.0;" x1="139" x2="139" y1="280.75" y2="300.75"/><polygon fill="#181818" points="135,290.75,139,300.75,143,290.75,139,294.75" style="stroke:#181818;stroke-width:1.0;"/><line style="stroke:#181818;stroke-width:1.0;" x1="139" x2="139" y1="468.9492" y2="488.9492"/><polygon fill="#181818" points="135,478.9492,139,488.9492,143,478.9492,139,482.9492" style="stroke:#181818;stroke-width:1.0;"/><line style="stroke:#181818;stroke-width:1.0;" x1="139" x2="139" y1="524.043" y2="544.043"/><polygon fill="#181818" points="135,534.043,139,544.043,143,534.043,139,538.043" style="stroke:#181818;stroke-width:1.0;"/><line style="stroke:#181818;stroke-width:1.0;" x1="139" x2="139" y1="579.1367" y2="599.1367"/><polygon fill="#181818" points="135,589.1367,139,599.1367,143,589.1367,139,593.1367" style="stroke:#181818;stroke-width:1.0;"/><line style="stroke:#181818;stroke-width:1.0;" x1="139" x2="139" y1="634.2305" y2="654.2305"/><polygon fill="#181818" points="135,644.2305,139,654.2305,143,644.2305,139,648.2305" style="stroke:#181818;stroke-width:1.0;"/><line style="stroke:#181818;stroke-width:1.0;" x1="139" x2="139" y1="689.3242" y2="709.3242"/><polygon fill="#181818" points="135,699.3242,139,709.3242,143,699.3242,139,703.3242" style="stroke:#181818;stroke-width:1.0;"/><line style="stroke:#181818;stroke-width:1.0;" x1="139" x2="139" y1="744.418" y2="764.418"/><polygon fill="#181818" points="135,754.418,139,764.418,143,754.418,139,758.418" style="stroke:#181818;stroke-width:1.0;"/><line style="stroke:#181818;stroke-width:1.0;" x1="139" x2="139" y1="799.5117" y2="819.5117"/><polygon fill="#181818" points="135,809.5117,139,819.5117,143,809.5117,139,813.5117" style="stroke:#181818;stroke-width:1.0;"/><line style="stroke:#181818;stroke-width:1.0;" x1="139" x2="139" y1="854.6055" y2="874.6055"/><polygon fill="#181818" points="135,864.6055,139,874.6055,143,864.6055,139,868.6055" style="stroke:#181818;stroke-width:1.0;"/><line style="stroke:#181818;stroke-width:1.0;" x1="139" x2="139" y1="909.6992" y2="929.6992"/><polygon fill="#181818" points="135,919.6992,139,929.6992,143,919.6992,139,923.6992" style="stroke:#181818;stroke-width:1.0;"/><line style="stroke:#181818;stroke-width:1.0;" x1="139" x2="139" y1="964.793" y2="984.793"/><polygon fill="#181818" points="135,974.793,139,984.793,143,974.793,139,978.793" style="stroke:#181818;stroke-width:1.0;"/><!--MD5=[ff3107cf9d19187fe87c5068b85982a8]
@startuml
start
    :Admin creates Product:
    - - - -
    Admin creates Product template
    Admin fills Product template
    Admin sets Product_isActive
    Admin sets Product_amount
    Admin save Product template;

    :Customer choose category;
    :Customer search Product in catalog;
    if (Customer asure abaut Product) then (yes)
        
    else (no)
        :Customer explore Product
        - - - -
        Customer click product
        Customer go throu product images;
    endif

    :Customer add Product to buscket;
    :Customer Open Buscket;
    :Customer explore order;
    :Customer change amount of items in order;
    :Customer fills contact details;
    :Customer makes order;

    :Notification sent to Admin;
    :Admin process order;
    :Admin set order status;

end
@enduml

PlantUML version 1.2022.7(Mon Aug 22 20:01:30 MSK 2022)
(GPL source distribution)
Java Runtime: Java(TM) SE Runtime Environment
JVM: Java HotSpot(TM) 64-Bit Server VM
Default Encoding: Cp1251
Language: en
Country: US
--></g></svg>