<?xml version="1.0" encoding="UTF-8" standalone="no"?><svg xmlns="http://www.w3.org/2000/svg" xmlns:xlink="http://www.w3.org/1999/xlink" contentStyleType="text/css" height="1151px" preserveAspectRatio="none" style="width:281px;height:1151px;background:#FFFFFF;" version="1.1" viewBox="0 0 281 1151" width="281px" zoomAndPan="magnify"><defs/><g><ellipse cx="139" cy="20" fill="#222222" rx="10" ry="10" style="stroke:#222222;stroke-width:1.0;"/><rect fill="#F1F1F1" height="35.0938" rx="12.5" ry="12.5" style="stroke:#181818;stroke-width:0.5;" width="151" x="63.5" y="50"/><text fill="#000000" font-family="sans-serif" font-size="12" lengthAdjust="spacing" textLength="131" x="73.5" y="72.457">Admin creates Category</text><rect fill="#F1F1F1" height="120.5625" rx="12.5" ry="12.5" style="stroke:#181818;stroke-width:0.5;" width="195" x="41.5" y="105.0938"/><text fill="#000000" font-family="sans-serif" font-size="12" lengthAdjust="spacing" textLength="127" x="51.5" y="127.5508">Admin creates Product:</text><line style="stroke:#181818;stroke-width:1.0;" x1="41.5" x2="236.5" y1="135.1875" y2="135.1875"/><text fill="#000000" font-family="sans-serif" font-size="12" lengthAdjust="spacing" textLength="175" x="51.5" y="152.6445">Admin creates Product template</text><text fill="#000000" font-family="sans-serif" font-size="12" lengthAdjust="spacing" textLength="153" x="51.5" y="167.7383">Admin fills Product template</text><text fill="#000000" font-family="sans-serif" font-size="12" lengthAdjust="spacing" textLength="155" x="51.5" y="182.832">Admin sets Product_isActive</text><text fill="#000000" font-family="sans-serif" font-size="12" lengthAdjust="spacing" textLength="156" x="51.5" y="197.9258">Admin sets Product_amount</text><text fill="#000000" font-family="sans-serif" font-size="12" lengthAdjust="spacing" textLength="160" x="51.5" y="213.0195">Admin save Product template</text><rect fill="#F1F1F1" height="35.0938" rx="12.5" ry="12.5" style="stroke:#181818;stroke-width:0.5;" width="168" x="55" y="245.6563"/><text fill="#000000" font-family="sans-serif" font-size="12" lengthAdjust="spacing" textLength="148" x="65" y="268.1133">Customer choose category</text><rect fill="#F1F1F1" height="35.0938" rx="12.5" ry="12.5" style="stroke:#181818;stroke-width:0.5;" width="217" x="30.5" y="300.75"/><text fill="#000000" font-family="sans-serif" font-size="12" lengthAdjust="spacing" textLength="197" x="40.5" y="323.207">Customer search Product in catalog</text><rect fill="#F1F1F1" height="75.2813" rx="12.5" ry="12.5" style="stroke:#181818;stroke-width:0.5;" width="212" x="33" y="404.7617"/><text fill="#000000" font-family="sans-serif" font-size="12" lengthAdjust="spacing" textLength="143" x="43" y="427.2188">Customer explore Product</text><line style="stroke:#181818;stroke-width:1.0;" x1="33" x2="245" y1="434.8555" y2="434.8555"/><text fill="#000000" font-family="sans-serif" font-size="12" lengthAdjust="spacing" textLength="126" x="43" y="452.3125">Customer click product</text><text fill="#000000" font-family="sans-serif" font-size="12" lengthAdjust="spacing" textLength="192" x="43" y="467.4063">Customer go throu product images</text><polygon fill="#F1F1F1" points="65.5,355.8438,212.5,355.8438,224.5,367.8438,212.5,379.8438,65.5,379.8438,53.5,367.8438,65.5,355.8438" style="stroke:#181818;stroke-width:0.5;"/><text fill="#000000" font-family="sans-serif" font-size="11" lengthAdjust="spacing" textLength="12" x="143" y="391.2627">no</text><text fill="#000000" font-family="sans-serif" font-size="11" lengthAdjust="spacing" textLength="147" x="65.5" y="372.3447">Customer asure abaut Product</text><text fill="#000000" font-family="sans-serif" font-size="11" lengthAdjust="spacing" textLength="18" x="224.5" y="365.4268">yes</text><polygon fill="#F1F1F1" points="139,500.043,151,512.043,139,524.043,127,512.043,139,500.043" style="stroke:#181818;stroke-width:0.5;"/><rect fill="#F1F1F1" height="35.0938" rx="12.5" ry="12.5" style="stroke:#181818;stroke-width:0.5;" width="203" x="37.5" y="544.043"/><text fill="#000000" font-family="sans-serif" font-size="12" lengthAdjust="spacing" textLength="183" x="47.5" y="566.5">Customer add Product to buscket</text><rect fill="#F1F1F1" height="35.0938" rx="12.5" ry="12.5" style="stroke:#181818;stroke-width:0.5;" width="155" x="61.5" y="599.1367"/><text fill="#000000" font-family="sans-serif" font-size="12" lengthAdjust="spacing" textLength="135" x="71.5" y="621.5938">Customer Open Buscket</text><rect fill="#F1F1F1" height="35.0938" rx="12.5" ry="12.5" style="stroke:#181818;stroke-width:0.5;" width="150" x="64" y="654.2305"/><text fill="#000000" font-family="sans-serif" font-size="12" lengthAdjust="spacing" textLength="130" x="74" y="676.6875">Customer explore order</text><rect fill="#F1F1F1" height="35.0938" rx="12.5" ry="12.5" style="stroke:#181818;stroke-width:0.5;" width="256" x="11" y="709.3242"/><text fill="#000000" font-family="sans-serif" font-size="12" lengthAdjust="spacing" textLength="236" x="21" y="731.7813">Customer change amount of items in order</text><rect fill="#F1F1F1" height="75.2813" rx="12.5" ry="12.5" style="stroke:#181818;stroke-width:0.5;" width="179" x="49.5" y="764.418"/><text fill="#000000" font-family="sans-serif" font-size="12" lengthAdjust="spacing" textLength="159" x="59.5" y="786.875">Customer fills contact details</text><line style="stroke:#181818;stroke-width:1.0;" x1="49.5" x2="228.5" y1="794.5117" y2="794.5117"/><text fill="#000000" font-family="sans-serif" font-size="12" lengthAdjust="spacing" textLength="122" x="59.5" y="811.9688">customer fill comment</text><text fill="#000000" font-family="sans-serif" font-size="12" lengthAdjust="spacing" textLength="109" x="59.5" y="827.0625">customer fill adress</text><rect fill="#F1F1F1" height="75.2813" rx="12.5" ry="12.5" style="stroke:#181818;stroke-width:0.5;" width="199" x="39.5" y="859.6992"/><text fill="#000000" font-family="sans-serif" font-size="12" lengthAdjust="spacing" textLength="128" x="49.5" y="882.1563">Customer makes order</text><line style="stroke:#181818;stroke-width:1.0;" x1="39.5" x2="238.5" y1="889.793" y2="889.793"/><text fill="#000000" font-family="sans-serif" font-size="12" lengthAdjust="spacing" textLength="179" x="49.5" y="907.25">calculator calculate delivery price</text><text fill="#000000" font-family="sans-serif" font-size="12" lengthAdjust="spacing" textLength="168" x="49.5" y="922.3438">customer confirm order deteils</text><rect fill="#F1F1F1" height="35.0938" rx="12.5" ry="12.5" style="stroke:#181818;stroke-width:0.5;" width="159" x="59.5" y="954.9805"/><text fill="#000000" font-family="sans-serif" font-size="12" lengthAdjust="spacing" textLength="139" x="69.5" y="977.4375">Notification sent to Admin</text><rect fill="#F1F1F1" height="35.0938" rx="12.5" ry="12.5" style="stroke:#181818;stroke-width:0.5;" width="135" x="71.5" y="1010.0742"/><text fill="#000000" font-family="sans-serif" font-size="12" lengthAdjust="spacing" textLength="115" x="81.5" y="1032.5313">Admin process order</text><rect fill="#F1F1F1" height="35.0938" rx="12.5" ry="12.5" style="stroke:#181818;stroke-width:0.5;" width="144" x="67" y="1065.168"/><text fill="#000000" font-family="sans-serif" font-size="12" lengthAdjust="spacing" textLength="124" x="77" y="1087.625">Admin set order status</text><ellipse cx="139" cy="1130.2617" fill="none" rx="10" ry="10" style="stroke:#222222;stroke-width:1.5;"/><line style="stroke:#222222;stroke-width:2.5;" x1="132.8128" x2="145.1872" y1="1124.0745" y2="1136.4489"/><line style="stroke:#222222;stroke-width:2.5;" x1="145.1872" x2="132.8128" y1="1124.0745" y2="1136.4489"/><line style="stroke:#181818;stroke-width:1.0;" x1="139" x2="139" y1="30" y2="50"/><polygon fill="#181818" points="135,40,139,50,143,40,139,44" style="stroke:#181818;stroke-width:1.0;"/><line style="stroke:#181818;stroke-width:1.0;" x1="139" x2="139" y1="85.0938" y2="105.0938"/><polygon fill="#181818" points="135,95.0938,139,105.0938,143,95.0938,139,99.0938" style="stroke:#181818;stroke-width:1.0;"/><line style="stroke:#181818;stroke-width:1.0;" x1="139" x2="139" y1="225.6563" y2="245.6563"/><polygon fill="#181818" points="135,235.6563,139,245.6563,143,235.6563,139,239.6563" style="stroke:#181818;stroke-width:1.0;"/><line style="stroke:#181818;stroke-width:1.0;" x1="139" x2="139" y1="280.75" y2="300.75"/><polygon fill="#181818" points="135,290.75,139,300.75,143,290.75,139,294.75" style="stroke:#181818;stroke-width:1.0;"/><line style="stroke:#181818;stroke-width:1.0;" x1="139" x2="139" y1="379.8438" y2="404.7617"/><polygon fill="#181818" points="135,394.7617,139,404.7617,143,394.7617,139,398.7617" style="stroke:#181818;stroke-width:1.0;"/><line style="stroke:#181818;stroke-width:1.0;" x1="224.5" x2="255" y1="367.8438" y2="367.8438"/><polygon fill="#181818" points="251,432.4023,255,442.4023,259,432.4023,255,436.4023" style="stroke:#181818;stroke-width:1.0;"/><line style="stroke:#181818;stroke-width:1.0;" x1="255" x2="255" y1="367.8438" y2="512.043"/><line style="stroke:#181818;stroke-width:1.0;" x1="255" x2="151" y1="512.043" y2="512.043"/><polygon fill="#181818" points="161,508.043,151,512.043,161,516.043,157,512.043" style="stroke:#181818;stroke-width:1.0;"/><line style="stroke:#181818;stroke-width:1.0;" x1="139" x2="139" y1="480.043" y2="500.043"/><polygon fill="#181818" points="135,490.043,139,500.043,143,490.043,139,494.043" style="stroke:#181818;stroke-width:1.0;"/><line style="stroke:#181818;stroke-width:1.0;" x1="139" x2="139" y1="335.8438" y2="355.8438"/><polygon fill="#181818" points="135,345.8438,139,355.8438,143,345.8438,139,349.8438" style="stroke:#181818;stroke-width:1.0;"/><line style="stroke:#181818;stroke-width:1.0;" x1="139" x2="139" y1="524.043" y2="544.043"/><polygon fill="#181818" points="135,534.043,139,544.043,143,534.043,139,538.043" style="stroke:#181818;stroke-width:1.0;"/><line style="stroke:#181818;stroke-width:1.0;" x1="139" x2="139" y1="579.1367" y2="599.1367"/><polygon fill="#181818" points="135,589.1367,139,599.1367,143,589.1367,139,593.1367" style="stroke:#181818;stroke-width:1.0;"/><line style="stroke:#181818;stroke-width:1.0;" x1="139" x2="139" y1="634.2305" y2="654.2305"/><polygon fill="#181818" points="135,644.2305,139,654.2305,143,644.2305,139,648.2305" style="stroke:#181818;stroke-width:1.0;"/><line style="stroke:#181818;stroke-width:1.0;" x1="139" x2="139" y1="689.3242" y2="709.3242"/><polygon fill="#181818" points="135,699.3242,139,709.3242,143,699.3242,139,703.3242" style="stroke:#181818;stroke-width:1.0;"/><line style="stroke:#181818;stroke-width:1.0;" x1="139" x2="139" y1="744.418" y2="764.418"/><polygon fill="#181818" points="135,754.418,139,764.418,143,754.418,139,758.418" style="stroke:#181818;stroke-width:1.0;"/><line style="stroke:#181818;stroke-width:1.0;" x1="139" x2="139" y1="839.6992" y2="859.6992"/><polygon fill="#181818" points="135,849.6992,139,859.6992,143,849.6992,139,853.6992" style="stroke:#181818;stroke-width:1.0;"/><line style="stroke:#181818;stroke-width:1.0;" x1="139" x2="139" y1="934.9805" y2="954.9805"/><polygon fill="#181818" points="135,944.9805,139,954.9805,143,944.9805,139,948.9805" style="stroke:#181818;stroke-width:1.0;"/><line style="stroke:#181818;stroke-width:1.0;" x1="139" x2="139" y1="990.0742" y2="1010.0742"/><polygon fill="#181818" points="135,1000.0742,139,1010.0742,143,1000.0742,139,1004.0742" style="stroke:#181818;stroke-width:1.0;"/><line style="stroke:#181818;stroke-width:1.0;" x1="139" x2="139" y1="1045.168" y2="1065.168"/><polygon fill="#181818" points="135,1055.168,139,1065.168,143,1055.168,139,1059.168" style="stroke:#181818;stroke-width:1.0;"/><line style="stroke:#181818;stroke-width:1.0;" x1="139" x2="139" y1="1100.2617" y2="1120.2617"/><polygon fill="#181818" points="135,1110.2617,139,1120.2617,143,1110.2617,139,1114.2617" style="stroke:#181818;stroke-width:1.0;"/><!--MD5=[04d21a28934dc0fe6ad80caf06e3e745]
@startuml
start
    :Admin creates Category;


    :Admin creates Product:
    - - - -
    Admin creates Product template
    Admin fills Product template
    Admin sets Product_isActive
    Admin sets Product_amount
    Admin save Product template;

    :Customer choose category;
    :Customer search Product in catalog;
    if (Customer asure abaut Product) then (yes)
        
    else (no)
        :Customer explore Product
        - - - -
        Customer click product
        Customer go throu product images;
    endif

    :Customer add Product to buscket;
    :Customer Open Buscket;
    :Customer explore order;
    :Customer change amount of items in order;
    :Customer fills contact details
    - - - -
    customer fill comment
    customer fill adress;

    :Customer makes order
    - - - -
    calculator calculate delivery price
    customer confirm order deteils;

    :Notification sent to Admin;
    :Admin process order;
    :Admin set order status;

end
@enduml

PlantUML version 1.2022.7(Mon Aug 22 20:01:30 MSK 2022)
(GPL source distribution)
Java Runtime: Java(TM) SE Runtime Environment
JVM: Java HotSpot(TM) 64-Bit Server VM
Default Encoding: Cp1251
Language: en
Country: US
--></g></svg>