<?xml version="1.0" encoding="UTF-8" standalone="no"?><svg xmlns="http://www.w3.org/2000/svg" xmlns:xlink="http://www.w3.org/1999/xlink" contentStyleType="text/css" height="647px" preserveAspectRatio="none" style="width:583px;height:647px;background:#FFFFFF;" version="1.1" viewBox="0 0 583 647" width="583px" zoomAndPan="magnify"><defs/><g><!--MD5=[72136138052d025cffdce3c22fbd185f]
class Product--><g id="elem_Product"><rect codeLine="1" fill="#F1F1F1" height="259.3125" id="Product" rx="2.5" ry="2.5" style="stroke:#181818;stroke-width:0.5;" width="160" x="161.5" y="238"/><ellipse cx="212.75" cy="254" fill="#ADD1B2" rx="11" ry="11" style="stroke:#181818;stroke-width:1.0;"/><path d="M215.5156,249.875 Q215.6719,249.6563 215.8594,249.5469 Q216.0469,249.4375 216.2656,249.4375 Q216.6406,249.4375 216.875,249.6953 Q217.1094,249.9531 217.1094,250.5625 L217.1094,252.0156 Q217.1094,252.625 216.875,252.8906 Q216.6406,253.1563 216.2656,253.1563 Q215.9219,253.1563 215.7188,252.9531 Q215.5156,252.7656 215.4063,252.25 Q215.3594,251.8906 215.1719,251.7031 Q214.8438,251.3281 214.2344,251.1094 Q213.625,250.8906 213,250.8906 Q212.2344,250.8906 211.6016,251.2188 Q210.9688,251.5469 210.4766,252.2969 Q209.9844,253.0469 209.9844,254.0781 L209.9844,255.1719 Q209.9844,256.4063 210.875,257.2266 Q211.7656,258.0469 213.3594,258.0469 Q214.2969,258.0469 214.9531,257.7969 Q215.3438,257.6406 215.7656,257.2031 Q216.0313,256.9375 216.1797,256.8594 Q216.3281,256.7813 216.5313,256.7813 Q216.8594,256.7813 217.1172,257.0391 Q217.375,257.2969 217.375,257.6406 Q217.375,257.9844 217.0313,258.3906 Q216.5313,258.9688 215.7344,259.2969 Q214.6563,259.75 213.3594,259.75 Q211.8438,259.75 210.6406,259.125 Q209.6563,258.625 208.9688,257.5547 Q208.2813,256.4844 208.2813,255.2031 L208.2813,254.0469 Q208.2813,252.7188 208.8984,251.5703 Q209.5156,250.4219 210.6094,249.8047 Q211.7031,249.1875 212.9375,249.1875 Q213.6719,249.1875 214.3203,249.3516 Q214.9688,249.5156 215.5156,249.875 Z " fill="#000000"/><text fill="#000000" font-family="sans-serif" font-size="14" lengthAdjust="spacing" textLength="49" x="233.25" y="259.7285">Product</text><line style="stroke:#181818;stroke-width:0.5;" x1="162.5" x2="320.5" y1="270" y2="270"/><text fill="#000000" font-family="sans-serif" font-size="14" lengthAdjust="spacing" textLength="34" x="167.5" y="288.5332">id: int</text><text fill="#000000" font-family="sans-serif" font-size="14" lengthAdjust="spacing" textLength="90" x="167.5" y="306.1426">is_active: bool</text><text fill="#000000" font-family="sans-serif" font-size="14" lengthAdjust="spacing" textLength="137" x="167.5" y="323.752">available_quantity: int</text><text fill="#000000" font-family="sans-serif" font-size="14" lengthAdjust="spacing" textLength="46" x="167.5" y="341.3613">title: str</text><text fill="#000000" font-family="sans-serif" font-size="14" lengthAdjust="spacing" textLength="69" x="167.5" y="358.9707">subtitle: str</text><text fill="#000000" font-family="sans-serif" font-size="14" lengthAdjust="spacing" textLength="121" x="167.5" y="376.5801">images: List[Image]</text><text fill="#000000" font-family="sans-serif" font-size="14" lengthAdjust="spacing" textLength="122" x="167.5" y="394.1895">main_image: Image</text><text fill="#000000" font-family="sans-serif" font-size="14" lengthAdjust="spacing" textLength="62" x="167.5" y="411.7988">article: str</text><text fill="#000000" font-family="sans-serif" font-size="14" lengthAdjust="spacing" textLength="93" x="167.5" y="429.4082">description: str</text><text fill="#000000" font-family="sans-serif" font-size="14" lengthAdjust="spacing" textLength="54" x="167.5" y="447.0176">price: int</text><text fill="#000000" font-family="sans-serif" font-size="14" lengthAdjust="spacing" textLength="148" x="167.5" y="464.627">parameters: Dict[str,str]</text><text fill="#000000" font-family="sans-serif" font-size="14" lengthAdjust="spacing" textLength="121" x="167.5" y="482.2363">category: Category</text><line style="stroke:#181818;stroke-width:0.5;" x1="162.5" x2="320.5" y1="489.3125" y2="489.3125"/></g><!--MD5=[964f074a2dd77d134c21b891bb53e381]
class Image--><g id="elem_Image"><rect codeLine="16" fill="#F1F1F1" height="65.6094" id="Image" rx="2.5" ry="2.5" style="stroke:#181818;stroke-width:0.5;" width="85" x="112" y="565.5"/><ellipse cx="133.75" cy="581.5" fill="#ADD1B2" rx="11" ry="11" style="stroke:#181818;stroke-width:1.0;"/><path d="M136.5156,577.375 Q136.6719,577.1563 136.8594,577.0469 Q137.0469,576.9375 137.2656,576.9375 Q137.6406,576.9375 137.875,577.1953 Q138.1094,577.4531 138.1094,578.0625 L138.1094,579.5156 Q138.1094,580.125 137.875,580.3906 Q137.6406,580.6563 137.2656,580.6563 Q136.9219,580.6563 136.7188,580.4531 Q136.5156,580.2656 136.4063,579.75 Q136.3594,579.3906 136.1719,579.2031 Q135.8438,578.8281 135.2344,578.6094 Q134.625,578.3906 134,578.3906 Q133.2344,578.3906 132.6016,578.7188 Q131.9688,579.0469 131.4766,579.7969 Q130.9844,580.5469 130.9844,581.5781 L130.9844,582.6719 Q130.9844,583.9063 131.875,584.7266 Q132.7656,585.5469 134.3594,585.5469 Q135.2969,585.5469 135.9531,585.2969 Q136.3438,585.1406 136.7656,584.7031 Q137.0313,584.4375 137.1797,584.3594 Q137.3281,584.2813 137.5313,584.2813 Q137.8594,584.2813 138.1172,584.5391 Q138.375,584.7969 138.375,585.1406 Q138.375,585.4844 138.0313,585.8906 Q137.5313,586.4688 136.7344,586.7969 Q135.6563,587.25 134.3594,587.25 Q132.8438,587.25 131.6406,586.625 Q130.6563,586.125 129.9688,585.0547 Q129.2813,583.9844 129.2813,582.7031 L129.2813,581.5469 Q129.2813,580.2188 129.8984,579.0703 Q130.5156,577.9219 131.6094,577.3047 Q132.7031,576.6875 133.9375,576.6875 Q134.6719,576.6875 135.3203,576.8516 Q135.9688,577.0156 136.5156,577.375 Z " fill="#000000"/><text fill="#000000" font-family="sans-serif" font-size="14" lengthAdjust="spacing" textLength="38" x="149.25" y="587.2285">Image</text><line style="stroke:#181818;stroke-width:0.5;" x1="113" x2="196" y1="597.5" y2="597.5"/><text fill="#000000" font-family="sans-serif" font-size="14" lengthAdjust="spacing" textLength="73" x="118" y="616.0332">image: byte</text><line style="stroke:#181818;stroke-width:0.5;" x1="113" x2="196" y1="623.1094" y2="623.1094"/></g><!--MD5=[a96594a83e2ecdc78cbf17c2ddf01934]
class Category--><g id="elem_Category"><rect codeLine="21" fill="#F1F1F1" height="118.4375" id="Category" rx="2.5" ry="2.5" style="stroke:#181818;stroke-width:0.5;" width="119" x="7" y="308.5"/><ellipse cx="35.05" cy="324.5" fill="#ADD1B2" rx="11" ry="11" style="stroke:#181818;stroke-width:1.0;"/><path d="M37.8156,320.375 Q37.9719,320.1563 38.1594,320.0469 Q38.3469,319.9375 38.5656,319.9375 Q38.9406,319.9375 39.175,320.1953 Q39.4094,320.4531 39.4094,321.0625 L39.4094,322.5156 Q39.4094,323.125 39.175,323.3906 Q38.9406,323.6563 38.5656,323.6563 Q38.2219,323.6563 38.0188,323.4531 Q37.8156,323.2656 37.7063,322.75 Q37.6594,322.3906 37.4719,322.2031 Q37.1438,321.8281 36.5344,321.6094 Q35.925,321.3906 35.3,321.3906 Q34.5344,321.3906 33.9016,321.7188 Q33.2688,322.0469 32.7766,322.7969 Q32.2844,323.5469 32.2844,324.5781 L32.2844,325.6719 Q32.2844,326.9063 33.175,327.7266 Q34.0656,328.5469 35.6594,328.5469 Q36.5969,328.5469 37.2531,328.2969 Q37.6438,328.1406 38.0656,327.7031 Q38.3313,327.4375 38.4797,327.3594 Q38.6281,327.2813 38.8313,327.2813 Q39.1594,327.2813 39.4172,327.5391 Q39.675,327.7969 39.675,328.1406 Q39.675,328.4844 39.3313,328.8906 Q38.8313,329.4688 38.0344,329.7969 Q36.9563,330.25 35.6594,330.25 Q34.1438,330.25 32.9406,329.625 Q31.9562,329.125 31.2687,328.0547 Q30.5812,326.9844 30.5812,325.7031 L30.5812,324.5469 Q30.5812,323.2188 31.1984,322.0703 Q31.8156,320.9219 32.9094,320.3047 Q34.0031,319.6875 35.2375,319.6875 Q35.9719,319.6875 36.6203,319.8516 Q37.2688,320.0156 37.8156,320.375 Z " fill="#000000"/><text fill="#000000" font-family="sans-serif" font-size="14" lengthAdjust="spacing" textLength="58" x="51.95" y="330.2285">Category</text><line style="stroke:#181818;stroke-width:0.5;" x1="8" x2="125" y1="340.5" y2="340.5"/><text fill="#000000" font-family="sans-serif" font-size="14" lengthAdjust="spacing" textLength="107" x="13" y="359.0332">parent: Category</text><text fill="#000000" font-family="sans-serif" font-size="14" lengthAdjust="spacing" textLength="84" x="13" y="376.6426">image: Image</text><text fill="#000000" font-family="sans-serif" font-size="14" lengthAdjust="spacing" textLength="93" x="13" y="394.252">icon_name: str</text><text fill="#000000" font-family="sans-serif" font-size="14" lengthAdjust="spacing" textLength="59" x="13" y="411.8613">name: str</text><line style="stroke:#181818;stroke-width:0.5;" x1="8" x2="125" y1="418.9375" y2="418.9375"/></g><!--MD5=[cf4d6237fcae255cd2e1656cf84a30e2]
class Order--><g id="elem_Order"><rect codeLine="28" fill="#F1F1F1" height="171.2656" id="Order" rx="2.5" ry="2.5" style="stroke:#181818;stroke-width:0.5;" width="146" x="404.5" y="7"/><ellipse cx="454.75" cy="23" fill="#ADD1B2" rx="11" ry="11" style="stroke:#181818;stroke-width:1.0;"/><path d="M457.5156,18.875 Q457.6719,18.6563 457.8594,18.5469 Q458.0469,18.4375 458.2656,18.4375 Q458.6406,18.4375 458.875,18.6953 Q459.1094,18.9531 459.1094,19.5625 L459.1094,21.0156 Q459.1094,21.625 458.875,21.8906 Q458.6406,22.1563 458.2656,22.1563 Q457.9219,22.1563 457.7188,21.9531 Q457.5156,21.7656 457.4063,21.25 Q457.3594,20.8906 457.1719,20.7031 Q456.8438,20.3281 456.2344,20.1094 Q455.625,19.8906 455,19.8906 Q454.2344,19.8906 453.6016,20.2188 Q452.9688,20.5469 452.4766,21.2969 Q451.9844,22.0469 451.9844,23.0781 L451.9844,24.1719 Q451.9844,25.4063 452.875,26.2266 Q453.7656,27.0469 455.3594,27.0469 Q456.2969,27.0469 456.9531,26.7969 Q457.3438,26.6406 457.7656,26.2031 Q458.0313,25.9375 458.1797,25.8594 Q458.3281,25.7813 458.5313,25.7813 Q458.8594,25.7813 459.1172,26.0391 Q459.375,26.2969 459.375,26.6406 Q459.375,26.9844 459.0313,27.3906 Q458.5313,27.9688 457.7344,28.2969 Q456.6563,28.75 455.3594,28.75 Q453.8438,28.75 452.6406,28.125 Q451.6563,27.625 450.9688,26.5547 Q450.2813,25.4844 450.2813,24.2031 L450.2813,23.0469 Q450.2813,21.7188 450.8984,20.5703 Q451.5156,19.4219 452.6094,18.8047 Q453.7031,18.1875 454.9375,18.1875 Q455.6719,18.1875 456.3203,18.3516 Q456.9688,18.5156 457.5156,18.875 Z " fill="#000000"/><text fill="#000000" font-family="sans-serif" font-size="14" lengthAdjust="spacing" textLength="37" x="475.25" y="28.7285">Order</text><line style="stroke:#181818;stroke-width:0.5;" x1="405.5" x2="549.5" y1="39" y2="39"/><text fill="#000000" font-family="sans-serif" font-size="14" lengthAdjust="spacing" textLength="76" x="410.5" y="57.5332">order_id: int</text><text fill="#000000" font-family="sans-serif" font-size="14" lengthAdjust="spacing" textLength="116" x="410.5" y="75.1426">datetime: datetime</text><text fill="#000000" font-family="sans-serif" font-size="14" lengthAdjust="spacing" textLength="125" x="410.5" y="92.752">customer_name: str</text><text fill="#000000" font-family="sans-serif" font-size="14" lengthAdjust="spacing" textLength="130" x="410.5" y="110.3613">customer_phone: str</text><text fill="#000000" font-family="sans-serif" font-size="14" lengthAdjust="spacing" textLength="89" x="410.5" y="127.9707">total_price: int</text><text fill="#000000" font-family="sans-serif" font-size="14" lengthAdjust="spacing" textLength="127" x="410.5" y="145.5801">customer: Customer</text><text fill="#000000" font-family="sans-serif" font-size="14" lengthAdjust="spacing" textLength="134" x="410.5" y="163.1895">items: List[OrderItem]</text><line style="stroke:#181818;stroke-width:0.5;" x1="405.5" x2="549.5" y1="170.2656" y2="170.2656"/></g><!--MD5=[003718b22fee2486eeba0fa029a176b7]
class OrderItem--><g id="elem_OrderItem"><rect codeLine="38" fill="#F1F1F1" height="83.2188" id="OrderItem" rx="2.5" ry="2.5" style="stroke:#181818;stroke-width:0.5;" width="117" x="357" y="326"/><ellipse cx="381.9" cy="342" fill="#ADD1B2" rx="11" ry="11" style="stroke:#181818;stroke-width:1.0;"/><path d="M384.6656,337.875 Q384.8219,337.6563 385.0094,337.5469 Q385.1969,337.4375 385.4156,337.4375 Q385.7906,337.4375 386.025,337.6953 Q386.2594,337.9531 386.2594,338.5625 L386.2594,340.0156 Q386.2594,340.625 386.025,340.8906 Q385.7906,341.1563 385.4156,341.1563 Q385.0719,341.1563 384.8688,340.9531 Q384.6656,340.7656 384.5563,340.25 Q384.5094,339.8906 384.3219,339.7031 Q383.9938,339.3281 383.3844,339.1094 Q382.775,338.8906 382.15,338.8906 Q381.3844,338.8906 380.7516,339.2188 Q380.1188,339.5469 379.6266,340.2969 Q379.1344,341.0469 379.1344,342.0781 L379.1344,343.1719 Q379.1344,344.4063 380.025,345.2266 Q380.9156,346.0469 382.5094,346.0469 Q383.4469,346.0469 384.1031,345.7969 Q384.4938,345.6406 384.9156,345.2031 Q385.1813,344.9375 385.3297,344.8594 Q385.4781,344.7813 385.6813,344.7813 Q386.0094,344.7813 386.2672,345.0391 Q386.525,345.2969 386.525,345.6406 Q386.525,345.9844 386.1813,346.3906 Q385.6813,346.9688 384.8844,347.2969 Q383.8063,347.75 382.5094,347.75 Q380.9938,347.75 379.7906,347.125 Q378.8063,346.625 378.1188,345.5547 Q377.4313,344.4844 377.4313,343.2031 L377.4313,342.0469 Q377.4313,340.7188 378.0484,339.5703 Q378.6656,338.4219 379.7594,337.8047 Q380.8531,337.1875 382.0875,337.1875 Q382.8219,337.1875 383.4703,337.3516 Q384.1188,337.5156 384.6656,337.875 Z " fill="#000000"/><text fill="#000000" font-family="sans-serif" font-size="14" lengthAdjust="spacing" textLength="63" x="398.1" y="347.7285">OrderItem</text><line style="stroke:#181818;stroke-width:0.5;" x1="358" x2="473" y1="358" y2="358"/><text fill="#000000" font-family="sans-serif" font-size="14" lengthAdjust="spacing" textLength="70" x="363" y="376.5332">amount: int</text><text fill="#000000" font-family="sans-serif" font-size="14" lengthAdjust="spacing" textLength="105" x="363" y="394.1426">product: Product</text><line style="stroke:#181818;stroke-width:0.5;" x1="358" x2="473" y1="401.2188" y2="401.2188"/></g><!--MD5=[3fd616f346a44cd59a91eb10b19e157c]
class User--><g id="elem_User"><rect codeLine="45" fill="#F1F1F1" height="65.6094" id="User" rx="2.5" ry="2.5" style="stroke:#181818;stroke-width:0.5;" width="61" x="509" y="334.5"/><ellipse cx="524" cy="350.5" fill="#ADD1B2" rx="11" ry="11" style="stroke:#181818;stroke-width:1.0;"/><path d="M526.7656,346.375 Q526.9219,346.1563 527.1094,346.0469 Q527.2969,345.9375 527.5156,345.9375 Q527.8906,345.9375 528.125,346.1953 Q528.3594,346.4531 528.3594,347.0625 L528.3594,348.5156 Q528.3594,349.125 528.125,349.3906 Q527.8906,349.6563 527.5156,349.6563 Q527.1719,349.6563 526.9688,349.4531 Q526.7656,349.2656 526.6563,348.75 Q526.6094,348.3906 526.4219,348.2031 Q526.0938,347.8281 525.4844,347.6094 Q524.875,347.3906 524.25,347.3906 Q523.4844,347.3906 522.8516,347.7188 Q522.2188,348.0469 521.7266,348.7969 Q521.2344,349.5469 521.2344,350.5781 L521.2344,351.6719 Q521.2344,352.9063 522.125,353.7266 Q523.0156,354.5469 524.6094,354.5469 Q525.5469,354.5469 526.2031,354.2969 Q526.5938,354.1406 527.0156,353.7031 Q527.2813,353.4375 527.4297,353.3594 Q527.5781,353.2813 527.7813,353.2813 Q528.1094,353.2813 528.3672,353.5391 Q528.625,353.7969 528.625,354.1406 Q528.625,354.4844 528.2813,354.8906 Q527.7813,355.4688 526.9844,355.7969 Q525.9063,356.25 524.6094,356.25 Q523.0938,356.25 521.8906,355.625 Q520.9063,355.125 520.2188,354.0547 Q519.5313,352.9844 519.5313,351.7031 L519.5313,350.5469 Q519.5313,349.2188 520.1484,348.0703 Q520.7656,346.9219 521.8594,346.3047 Q522.9531,345.6875 524.1875,345.6875 Q524.9219,345.6875 525.5703,345.8516 Q526.2188,346.0156 526.7656,346.375 Z " fill="#000000"/><text fill="#000000" font-family="sans-serif" font-size="14" lengthAdjust="spacing" textLength="29" x="538" y="356.2285">User</text><line style="stroke:#181818;stroke-width:0.5;" x1="510" x2="569" y1="366.5" y2="366.5"/><text fill="#000000" font-family="sans-serif" font-size="14" lengthAdjust="spacing" textLength="24" x="515" y="385.0332">role</text><line style="stroke:#181818;stroke-width:0.5;" x1="510" x2="569" y1="392.1094" y2="392.1094"/></g><!--MD5=[a3638c1e5b65d287ecad7f06f5c0f212]
class Role--><g id="elem_Role"><rect codeLine="49" fill="#F1F1F1" height="83.2188" id="Role" rx="2.5" ry="2.5" style="stroke:#181818;stroke-width:0.5;" width="73" x="503" y="557"/><ellipse cx="523.4" cy="573" fill="#EB937F" rx="11" ry="11" style="stroke:#181818;stroke-width:1.0;"/><path d="M522.2594,573.7969 L522.2594,576.2969 L526.5875,576.2969 L526.5875,575.375 Q526.5875,574.7656 526.8297,574.5 Q527.0719,574.2344 527.4469,574.2344 Q527.8219,574.2344 528.0563,574.5 Q528.2906,574.7656 528.2906,575.375 L528.2906,578 L520.2906,578 Q519.6656,578 519.4078,577.7656 Q519.15,577.5313 519.15,577.1406 Q519.15,576.7656 519.4156,576.5313 Q519.6813,576.2969 520.2906,576.2969 L520.5563,576.2969 L520.5563,569.6406 L520.2906,569.6406 Q519.6656,569.6406 519.4078,569.4063 Q519.15,569.1719 519.15,568.7813 Q519.15,568.4063 519.4078,568.1719 Q519.6656,567.9375 520.2906,567.9375 L527.9156,567.9375 L527.9156,570.5313 Q527.9156,571.1406 527.6891,571.3984 Q527.4625,571.6563 527.0719,571.6563 Q526.6969,571.6563 526.4625,571.3984 Q526.2281,571.1406 526.2281,570.5313 L526.2281,569.6406 L522.2594,569.6406 L522.2594,572.0938 L523.7438,572.0938 Q523.7438,571.4375 523.8688,571.25 Q524.1344,570.8438 524.6031,570.8438 Q524.9781,570.8438 525.2125,571.1016 Q525.4469,571.3594 525.4469,571.9688 L525.4469,573.9375 Q525.4469,574.4844 525.3219,574.6719 Q525.0563,575.0625 524.6031,575.0625 Q524.1344,575.0625 523.8688,574.6563 Q523.7438,574.4688 523.7438,573.7969 L522.2594,573.7969 Z " fill="#000000"/><text fill="#000000" font-family="sans-serif" font-size="14" lengthAdjust="spacing" textLength="29" x="538.6" y="578.7285">Role</text><line style="stroke:#181818;stroke-width:0.5;" x1="504" x2="575" y1="589" y2="589"/><text fill="#000000" font-family="sans-serif" font-size="14" lengthAdjust="spacing" textLength="61" x="509" y="607.5332">Customer</text><text fill="#000000" font-family="sans-serif" font-size="14" lengthAdjust="spacing" textLength="39" x="509" y="625.1426">Admin</text><line style="stroke:#181818;stroke-width:0.5;" x1="504" x2="575" y1="632.2188" y2="632.2188"/></g><!--MD5=[70c37dc9bfbc8656942103c36f1181e4]
link User to Role--><g id="link_User_Role"><path codeLine="54" d="M539.5,400.82 C539.5,440.24 539.5,507.11 539.5,551.78 " fill="none" id="User-to-Role" style="stroke:#181818;stroke-width:1.0;"/><polygon fill="#181818" points="539.5,556.84,543.5,547.84,539.5,551.84,535.5,547.84,539.5,556.84" style="stroke:#181818;stroke-width:1.0;"/></g><!--MD5=[628e913ff14b9ac597ffc0eab88125e8]
reverse link Category to Product--><g id="link_Category_Product"><path codeLine="55" d="M131.52,367.5 C141.49,367.5 151.45,367.5 161.41,367.5 " fill="none" id="Category-backto-Product" style="stroke:#181818;stroke-width:1.0;"/><polygon fill="#181818" points="126.31,367.5,135.31,371.5,131.31,367.5,135.31,363.5,126.31,367.5" style="stroke:#181818;stroke-width:1.0;"/></g><!--MD5=[a0a8b763feb5bbdb0d4104108fb3bde6]
link Category to Image--><g id="link_Category_Image"><path codeLine="56" d="M88.82,426.58 C105,468.68 126.39,524.35 140.3,560.54 " fill="none" id="Category-to-Image" style="stroke:#181818;stroke-width:1.0;"/><polygon fill="#181818" points="142.12,565.29,142.6327,555.4545,140.3299,560.6214,135.163,558.3186,142.12,565.29" style="stroke:#181818;stroke-width:1.0;"/></g><!--MD5=[36b69398912f1cff2510a1764d3175d7]
link Product to Image--><g id="link_Product_Image"><path codeLine="57" d="M188.3902,508.2747 C188.3902,508.2747 176.4,539.87 171.47,552.82 " fill="none" id="Product-Image" style="stroke:#181818;stroke-width:1.0;"/><polygon fill="#181818" points="166.81,565.09,173.7533,558.105,168.5909,560.4179,166.2779,555.2555,166.81,565.09" style="stroke:#181818;stroke-width:1.0;"/><line style="stroke:#181818;stroke-width:1.0;" x1="168.5909" x2="171.43" y1="560.4179" y2="552.94"/><polygon fill="#181818" points="192.66,497.06,186.7869,501.2441,188.3902,508.2747,194.2634,504.0906,192.66,497.06" style="stroke:#181818;stroke-width:1.0;"/></g><!--MD5=[6f8b731c678b15fcafa87aa391fc1121]
link Order to User--><g id="link_Order_User"><path codeLine="58" d="M496.69,178.01 C508.2,228.66 522.25,290.55 531.04,329.26 " fill="none" id="Order-to-User" style="stroke:#181818;stroke-width:1.0;"/><polygon fill="#181818" points="532.19,334.33,534.0825,324.6647,531.0751,329.4559,526.2839,326.4485,532.19,334.33" style="stroke:#181818;stroke-width:1.0;"/></g><!--MD5=[06a6064c5cdd443a62b5eb59fb550c27]
link Order to OrderItem--><g id="link_Order_OrderItem"><path codeLine="59" d="M455.6608,189.7139 C455.6608,189.7139 435.52,278.36 427.63,313.09 " fill="none" id="Order-OrderItem" style="stroke:#181818;stroke-width:1.0;"/><polygon fill="#181818" points="424.74,325.8,430.6386,317.9129,425.8502,320.9248,422.8383,316.1365,424.74,325.8" style="stroke:#181818;stroke-width:1.0;"/><line style="stroke:#181818;stroke-width:1.0;" x1="425.8502" x2="427.625" y1="320.9248" y2="313.12"/><polygon fill="#181818" points="458.31,178.01,453.0841,182.9789,455.6608,189.7139,460.8867,184.745,458.31,178.01" style="stroke:#181818;stroke-width:1.0;"/></g><!--MD5=[2cbe48b61b454217c379a079f3d216fd]
reverse link Product to OrderItem--><g id="link_Product_OrderItem"><path codeLine="60" d="M326.92,367.5 C336.91,367.5 346.89,367.5 356.88,367.5 " fill="none" id="Product-backto-OrderItem" style="stroke:#181818;stroke-width:1.0;"/><polygon fill="#181818" points="321.7,367.5,330.7,371.5,326.7,367.5,330.7,363.5,321.7,367.5" style="stroke:#181818;stroke-width:1.0;"/></g><!--MD5=[8e67f4ec6c8da7b27d21165cd919a8d8]
@startuml
class Product{
    id: int
    is_active: bool
    available_quantity: int
    title: str
    subtitle: str
    images: List[Image]
    main_image: Image
    article: str
    description: str
    price: int
    parameters: Dict[str,str]
    category: Category
}

class Image{
    image: byte
}


class Category{
    parent: Category
    image: Image
    icon_name: str
    name: str
}

class Order{
    order_id: int
    datetime: datetime
    customer_name: str
    customer_phone: str
    total_price: int
    customer: Customer
    items: List[OrderItem]
}

class OrderItem{
    amount: int
    product: Product
}



class User{
    role
}

enum Role{
    Customer
    Admin
}

User - -> Role
Product -left-> Category
    Category - -> Image
Product *- -> Image
Order - -> User
Order *- -> OrderItem
    OrderItem -left-> Product
@enduml

PlantUML version 1.2022.7(Mon Aug 22 20:01:30 MSK 2022)
(GPL source distribution)
Java Runtime: Java(TM) SE Runtime Environment
JVM: Java HotSpot(TM) 64-Bit Server VM
Default Encoding: Cp1251
Language: en
Country: US
--></g></svg>