<?xml version="1.0" encoding="UTF-8" standalone="no"?><svg xmlns="http://www.w3.org/2000/svg" xmlns:xlink="http://www.w3.org/1999/xlink" contentStyleType="text/css" height="718px" preserveAspectRatio="none" style="width:690px;height:718px;background:#FFFFFF;" version="1.1" viewBox="0 0 690 718" width="690px" zoomAndPan="magnify"><defs/><g><!--MD5=[72136138052d025cffdce3c22fbd185f]
class Product--><g id="elem_Product"><rect codeLine="1" fill="#F1F1F1" height="259.3125" id="Product" rx="2.5" ry="2.5" style="stroke:#181818;stroke-width:0.5;" width="163" x="161" y="309"/><ellipse cx="213.75" cy="325" fill="#ADD1B2" rx="11" ry="11" style="stroke:#181818;stroke-width:1.0;"/><path d="M216.5156,320.875 Q216.6719,320.6563 216.8594,320.5469 Q217.0469,320.4375 217.2656,320.4375 Q217.6406,320.4375 217.875,320.6953 Q218.1094,320.9531 218.1094,321.5625 L218.1094,323.0156 Q218.1094,323.625 217.875,323.8906 Q217.6406,324.1563 217.2656,324.1563 Q216.9219,324.1563 216.7188,323.9531 Q216.5156,323.7656 216.4063,323.25 Q216.3594,322.8906 216.1719,322.7031 Q215.8438,322.3281 215.2344,322.1094 Q214.625,321.8906 214,321.8906 Q213.2344,321.8906 212.6016,322.2188 Q211.9688,322.5469 211.4766,323.2969 Q210.9844,324.0469 210.9844,325.0781 L210.9844,326.1719 Q210.9844,327.4063 211.875,328.2266 Q212.7656,329.0469 214.3594,329.0469 Q215.2969,329.0469 215.9531,328.7969 Q216.3438,328.6406 216.7656,328.2031 Q217.0313,327.9375 217.1797,327.8594 Q217.3281,327.7813 217.5313,327.7813 Q217.8594,327.7813 218.1172,328.0391 Q218.375,328.2969 218.375,328.6406 Q218.375,328.9844 218.0313,329.3906 Q217.5313,329.9688 216.7344,330.2969 Q215.6563,330.75 214.3594,330.75 Q212.8438,330.75 211.6406,330.125 Q210.6563,329.625 209.9688,328.5547 Q209.2813,327.4844 209.2813,326.2031 L209.2813,325.0469 Q209.2813,323.7188 209.8984,322.5703 Q210.5156,321.4219 211.6094,320.8047 Q212.7031,320.1875 213.9375,320.1875 Q214.6719,320.1875 215.3203,320.3516 Q215.9688,320.5156 216.5156,320.875 Z " fill="#000000"/><text fill="#000000" font-family="sans-serif" font-size="14" lengthAdjust="spacing" textLength="49" x="234.25" y="330.7285">Product</text><line style="stroke:#181818;stroke-width:0.5;" x1="162" x2="323" y1="341" y2="341"/><text fill="#000000" font-family="sans-serif" font-size="14" lengthAdjust="spacing" textLength="34" x="167" y="359.5332">id: int</text><text fill="#000000" font-family="sans-serif" font-size="14" lengthAdjust="spacing" textLength="90" x="167" y="377.1426">is_active: bool</text><text fill="#000000" font-family="sans-serif" font-size="14" lengthAdjust="spacing" textLength="137" x="167" y="394.752">available_quantity: int</text><text fill="#000000" font-family="sans-serif" font-size="14" lengthAdjust="spacing" textLength="46" x="167" y="412.3613">title: str</text><text fill="#000000" font-family="sans-serif" font-size="14" lengthAdjust="spacing" textLength="69" x="167" y="429.9707">subtitle: str</text><text fill="#000000" font-family="sans-serif" font-size="14" lengthAdjust="spacing" textLength="121" x="167" y="447.5801">images: List[Image]</text><text fill="#000000" font-family="sans-serif" font-size="14" lengthAdjust="spacing" textLength="122" x="167" y="465.1895">main_image: Image</text><text fill="#000000" font-family="sans-serif" font-size="14" lengthAdjust="spacing" textLength="62" x="167" y="482.7988">article: str</text><text fill="#000000" font-family="sans-serif" font-size="14" lengthAdjust="spacing" textLength="93" x="167" y="500.4082">description: str</text><text fill="#000000" font-family="sans-serif" font-size="14" lengthAdjust="spacing" textLength="54" x="167" y="518.0176">price: int</text><text fill="#000000" font-family="sans-serif" font-size="14" lengthAdjust="spacing" textLength="148" x="167" y="535.627">parameters: Dict[str,str]</text><text fill="#000000" font-family="sans-serif" font-size="14" lengthAdjust="spacing" textLength="151" x="167" y="553.2363">category: List[Category]</text><line style="stroke:#181818;stroke-width:0.5;" x1="162" x2="323" y1="560.3125" y2="560.3125"/></g><!--MD5=[964f074a2dd77d134c21b891bb53e381]
class Image--><g id="elem_Image"><rect codeLine="16" fill="#F1F1F1" height="65.6094" id="Image" rx="2.5" ry="2.5" style="stroke:#181818;stroke-width:0.5;" width="85" x="112" y="636.5"/><ellipse cx="133.75" cy="652.5" fill="#ADD1B2" rx="11" ry="11" style="stroke:#181818;stroke-width:1.0;"/><path d="M136.5156,648.375 Q136.6719,648.1563 136.8594,648.0469 Q137.0469,647.9375 137.2656,647.9375 Q137.6406,647.9375 137.875,648.1953 Q138.1094,648.4531 138.1094,649.0625 L138.1094,650.5156 Q138.1094,651.125 137.875,651.3906 Q137.6406,651.6563 137.2656,651.6563 Q136.9219,651.6563 136.7188,651.4531 Q136.5156,651.2656 136.4063,650.75 Q136.3594,650.3906 136.1719,650.2031 Q135.8438,649.8281 135.2344,649.6094 Q134.625,649.3906 134,649.3906 Q133.2344,649.3906 132.6016,649.7188 Q131.9688,650.0469 131.4766,650.7969 Q130.9844,651.5469 130.9844,652.5781 L130.9844,653.6719 Q130.9844,654.9063 131.875,655.7266 Q132.7656,656.5469 134.3594,656.5469 Q135.2969,656.5469 135.9531,656.2969 Q136.3438,656.1406 136.7656,655.7031 Q137.0313,655.4375 137.1797,655.3594 Q137.3281,655.2813 137.5313,655.2813 Q137.8594,655.2813 138.1172,655.5391 Q138.375,655.7969 138.375,656.1406 Q138.375,656.4844 138.0313,656.8906 Q137.5313,657.4688 136.7344,657.7969 Q135.6563,658.25 134.3594,658.25 Q132.8438,658.25 131.6406,657.625 Q130.6563,657.125 129.9688,656.0547 Q129.2813,654.9844 129.2813,653.7031 L129.2813,652.5469 Q129.2813,651.2188 129.8984,650.0703 Q130.5156,648.9219 131.6094,648.3047 Q132.7031,647.6875 133.9375,647.6875 Q134.6719,647.6875 135.3203,647.8516 Q135.9688,648.0156 136.5156,648.375 Z " fill="#000000"/><text fill="#000000" font-family="sans-serif" font-size="14" lengthAdjust="spacing" textLength="38" x="149.25" y="658.2285">Image</text><line style="stroke:#181818;stroke-width:0.5;" x1="113" x2="196" y1="668.5" y2="668.5"/><text fill="#000000" font-family="sans-serif" font-size="14" lengthAdjust="spacing" textLength="73" x="118" y="687.0332">image: byte</text><line style="stroke:#181818;stroke-width:0.5;" x1="113" x2="196" y1="694.1094" y2="694.1094"/></g><!--MD5=[a96594a83e2ecdc78cbf17c2ddf01934]
class Category--><g id="elem_Category"><rect codeLine="21" fill="#F1F1F1" height="118.4375" id="Category" rx="2.5" ry="2.5" style="stroke:#181818;stroke-width:0.5;" width="119" x="7" y="379.5"/><ellipse cx="35.05" cy="395.5" fill="#ADD1B2" rx="11" ry="11" style="stroke:#181818;stroke-width:1.0;"/><path d="M37.8156,391.375 Q37.9719,391.1563 38.1594,391.0469 Q38.3469,390.9375 38.5656,390.9375 Q38.9406,390.9375 39.175,391.1953 Q39.4094,391.4531 39.4094,392.0625 L39.4094,393.5156 Q39.4094,394.125 39.175,394.3906 Q38.9406,394.6563 38.5656,394.6563 Q38.2219,394.6563 38.0188,394.4531 Q37.8156,394.2656 37.7063,393.75 Q37.6594,393.3906 37.4719,393.2031 Q37.1438,392.8281 36.5344,392.6094 Q35.925,392.3906 35.3,392.3906 Q34.5344,392.3906 33.9016,392.7188 Q33.2688,393.0469 32.7766,393.7969 Q32.2844,394.5469 32.2844,395.5781 L32.2844,396.6719 Q32.2844,397.9063 33.175,398.7266 Q34.0656,399.5469 35.6594,399.5469 Q36.5969,399.5469 37.2531,399.2969 Q37.6438,399.1406 38.0656,398.7031 Q38.3313,398.4375 38.4797,398.3594 Q38.6281,398.2813 38.8313,398.2813 Q39.1594,398.2813 39.4172,398.5391 Q39.675,398.7969 39.675,399.1406 Q39.675,399.4844 39.3313,399.8906 Q38.8313,400.4688 38.0344,400.7969 Q36.9563,401.25 35.6594,401.25 Q34.1438,401.25 32.9406,400.625 Q31.9562,400.125 31.2687,399.0547 Q30.5812,397.9844 30.5812,396.7031 L30.5812,395.5469 Q30.5812,394.2188 31.1984,393.0703 Q31.8156,391.9219 32.9094,391.3047 Q34.0031,390.6875 35.2375,390.6875 Q35.9719,390.6875 36.6203,390.8516 Q37.2688,391.0156 37.8156,391.375 Z " fill="#000000"/><text fill="#000000" font-family="sans-serif" font-size="14" lengthAdjust="spacing" textLength="58" x="51.95" y="401.2285">Category</text><line style="stroke:#181818;stroke-width:0.5;" x1="8" x2="125" y1="411.5" y2="411.5"/><text fill="#000000" font-family="sans-serif" font-size="14" lengthAdjust="spacing" textLength="107" x="13" y="430.0332">parent: Category</text><text fill="#000000" font-family="sans-serif" font-size="14" lengthAdjust="spacing" textLength="84" x="13" y="447.6426">image: Image</text><text fill="#000000" font-family="sans-serif" font-size="14" lengthAdjust="spacing" textLength="93" x="13" y="465.252">icon_name: str</text><text fill="#000000" font-family="sans-serif" font-size="14" lengthAdjust="spacing" textLength="59" x="13" y="482.8613">name: str</text><line style="stroke:#181818;stroke-width:0.5;" x1="8" x2="125" y1="489.9375" y2="489.9375"/></g><!--MD5=[cf4d6237fcae255cd2e1656cf84a30e2]
class Order--><g id="elem_Order"><rect codeLine="28" fill="#F1F1F1" height="241.7031" id="Order" rx="2.5" ry="2.5" style="stroke:#181818;stroke-width:0.5;" width="146" x="406.5" y="7"/><ellipse cx="456.75" cy="23" fill="#ADD1B2" rx="11" ry="11" style="stroke:#181818;stroke-width:1.0;"/><path d="M459.5156,18.875 Q459.6719,18.6563 459.8594,18.5469 Q460.0469,18.4375 460.2656,18.4375 Q460.6406,18.4375 460.875,18.6953 Q461.1094,18.9531 461.1094,19.5625 L461.1094,21.0156 Q461.1094,21.625 460.875,21.8906 Q460.6406,22.1563 460.2656,22.1563 Q459.9219,22.1563 459.7188,21.9531 Q459.5156,21.7656 459.4063,21.25 Q459.3594,20.8906 459.1719,20.7031 Q458.8438,20.3281 458.2344,20.1094 Q457.625,19.8906 457,19.8906 Q456.2344,19.8906 455.6016,20.2188 Q454.9688,20.5469 454.4766,21.2969 Q453.9844,22.0469 453.9844,23.0781 L453.9844,24.1719 Q453.9844,25.4063 454.875,26.2266 Q455.7656,27.0469 457.3594,27.0469 Q458.2969,27.0469 458.9531,26.7969 Q459.3438,26.6406 459.7656,26.2031 Q460.0313,25.9375 460.1797,25.8594 Q460.3281,25.7813 460.5313,25.7813 Q460.8594,25.7813 461.1172,26.0391 Q461.375,26.2969 461.375,26.6406 Q461.375,26.9844 461.0313,27.3906 Q460.5313,27.9688 459.7344,28.2969 Q458.6563,28.75 457.3594,28.75 Q455.8438,28.75 454.6406,28.125 Q453.6563,27.625 452.9688,26.5547 Q452.2813,25.4844 452.2813,24.2031 L452.2813,23.0469 Q452.2813,21.7188 452.8984,20.5703 Q453.5156,19.4219 454.6094,18.8047 Q455.7031,18.1875 456.9375,18.1875 Q457.6719,18.1875 458.3203,18.3516 Q458.9688,18.5156 459.5156,18.875 Z " fill="#000000"/><text fill="#000000" font-family="sans-serif" font-size="14" lengthAdjust="spacing" textLength="37" x="477.25" y="28.7285">Order</text><line style="stroke:#181818;stroke-width:0.5;" x1="407.5" x2="551.5" y1="39" y2="39"/><text fill="#000000" font-family="sans-serif" font-size="14" lengthAdjust="spacing" textLength="76" x="412.5" y="57.5332">order_id: int</text><text fill="#000000" font-family="sans-serif" font-size="14" lengthAdjust="spacing" textLength="116" x="412.5" y="75.1426">datetime: datetime</text><text fill="#000000" font-family="sans-serif" font-size="14" lengthAdjust="spacing" textLength="125" x="412.5" y="92.752">customer_name: str</text><text fill="#000000" font-family="sans-serif" font-size="14" lengthAdjust="spacing" textLength="130" x="412.5" y="110.3613">customer_phone: str</text><text fill="#000000" font-family="sans-serif" font-size="14" lengthAdjust="spacing" textLength="89" x="412.5" y="127.9707">total_price: int</text><text fill="#000000" font-family="sans-serif" font-size="14" lengthAdjust="spacing" textLength="127" x="412.5" y="145.5801">customer: Customer</text><text fill="#000000" font-family="sans-serif" font-size="14" lengthAdjust="spacing" textLength="134" x="412.5" y="163.1895">items: List[OrderItem]</text><text fill="#000000" font-family="sans-serif" font-size="14" lengthAdjust="spacing" textLength="67" x="412.5" y="180.7988">adress: str</text><text fill="#000000" font-family="sans-serif" font-size="14" lengthAdjust="spacing" textLength="81" x="412.5" y="198.4082">comment: str</text><text fill="#000000" font-family="sans-serif" font-size="14" lengthAdjust="spacing" textLength="106" x="412.5" y="216.0176">self_pickup: bool</text><text fill="#000000" font-family="sans-serif" font-size="14" lengthAdjust="spacing" textLength="111" x="412.5" y="233.627">delivery_price: int</text><line style="stroke:#181818;stroke-width:0.5;" x1="407.5" x2="551.5" y1="240.7031" y2="240.7031"/></g><!--MD5=[003718b22fee2486eeba0fa029a176b7]
class OrderItem--><g id="elem_OrderItem"><rect codeLine="42" fill="#F1F1F1" height="83.2188" id="OrderItem" rx="2.5" ry="2.5" style="stroke:#181818;stroke-width:0.5;" width="117" x="359" y="397"/><ellipse cx="383.9" cy="413" fill="#ADD1B2" rx="11" ry="11" style="stroke:#181818;stroke-width:1.0;"/><path d="M386.6656,408.875 Q386.8219,408.6563 387.0094,408.5469 Q387.1969,408.4375 387.4156,408.4375 Q387.7906,408.4375 388.025,408.6953 Q388.2594,408.9531 388.2594,409.5625 L388.2594,411.0156 Q388.2594,411.625 388.025,411.8906 Q387.7906,412.1563 387.4156,412.1563 Q387.0719,412.1563 386.8688,411.9531 Q386.6656,411.7656 386.5563,411.25 Q386.5094,410.8906 386.3219,410.7031 Q385.9938,410.3281 385.3844,410.1094 Q384.775,409.8906 384.15,409.8906 Q383.3844,409.8906 382.7516,410.2188 Q382.1188,410.5469 381.6266,411.2969 Q381.1344,412.0469 381.1344,413.0781 L381.1344,414.1719 Q381.1344,415.4063 382.025,416.2266 Q382.9156,417.0469 384.5094,417.0469 Q385.4469,417.0469 386.1031,416.7969 Q386.4938,416.6406 386.9156,416.2031 Q387.1813,415.9375 387.3297,415.8594 Q387.4781,415.7813 387.6813,415.7813 Q388.0094,415.7813 388.2672,416.0391 Q388.525,416.2969 388.525,416.6406 Q388.525,416.9844 388.1813,417.3906 Q387.6813,417.9688 386.8844,418.2969 Q385.8063,418.75 384.5094,418.75 Q382.9938,418.75 381.7906,418.125 Q380.8063,417.625 380.1188,416.5547 Q379.4313,415.4844 379.4313,414.2031 L379.4313,413.0469 Q379.4313,411.7188 380.0484,410.5703 Q380.6656,409.4219 381.7594,408.8047 Q382.8531,408.1875 384.0875,408.1875 Q384.8219,408.1875 385.4703,408.3516 Q386.1188,408.5156 386.6656,408.875 Z " fill="#000000"/><text fill="#000000" font-family="sans-serif" font-size="14" lengthAdjust="spacing" textLength="63" x="400.1" y="418.7285">OrderItem</text><line style="stroke:#181818;stroke-width:0.5;" x1="360" x2="475" y1="429" y2="429"/><text fill="#000000" font-family="sans-serif" font-size="14" lengthAdjust="spacing" textLength="70" x="365" y="447.5332">amount: int</text><text fill="#000000" font-family="sans-serif" font-size="14" lengthAdjust="spacing" textLength="105" x="365" y="465.1426">product: Product</text><line style="stroke:#181818;stroke-width:0.5;" x1="360" x2="475" y1="472.2188" y2="472.2188"/></g><!--MD5=[e6f67585185a4b3ef1aae8f414a63962]
class Calculator--><g id="elem_Calculator"><rect codeLine="47" fill="#F1F1F1" height="65.6094" id="Calculator" rx="2.5" ry="2.5" style="stroke:#181818;stroke-width:0.5;" width="96" x="587.5" y="95"/><ellipse cx="602.5" cy="111" fill="#ADD1B2" rx="11" ry="11" style="stroke:#181818;stroke-width:1.0;"/><path d="M605.2656,106.875 Q605.4219,106.6563 605.6094,106.5469 Q605.7969,106.4375 606.0156,106.4375 Q606.3906,106.4375 606.625,106.6953 Q606.8594,106.9531 606.8594,107.5625 L606.8594,109.0156 Q606.8594,109.625 606.625,109.8906 Q606.3906,110.1563 606.0156,110.1563 Q605.6719,110.1563 605.4688,109.9531 Q605.2656,109.7656 605.1563,109.25 Q605.1094,108.8906 604.9219,108.7031 Q604.5938,108.3281 603.9844,108.1094 Q603.375,107.8906 602.75,107.8906 Q601.9844,107.8906 601.3516,108.2188 Q600.7188,108.5469 600.2266,109.2969 Q599.7344,110.0469 599.7344,111.0781 L599.7344,112.1719 Q599.7344,113.4063 600.625,114.2266 Q601.5156,115.0469 603.1094,115.0469 Q604.0469,115.0469 604.7031,114.7969 Q605.0938,114.6406 605.5156,114.2031 Q605.7813,113.9375 605.9297,113.8594 Q606.0781,113.7813 606.2813,113.7813 Q606.6094,113.7813 606.8672,114.0391 Q607.125,114.2969 607.125,114.6406 Q607.125,114.9844 606.7813,115.3906 Q606.2813,115.9688 605.4844,116.2969 Q604.4063,116.75 603.1094,116.75 Q601.5938,116.75 600.3906,116.125 Q599.4063,115.625 598.7188,114.5547 Q598.0313,113.4844 598.0313,112.2031 L598.0313,111.0469 Q598.0313,109.7188 598.6484,108.5703 Q599.2656,107.4219 600.3594,106.8047 Q601.4531,106.1875 602.6875,106.1875 Q603.4219,106.1875 604.0703,106.3516 Q604.7188,106.5156 605.2656,106.875 Z " fill="#000000"/><text fill="#000000" font-family="sans-serif" font-size="14" lengthAdjust="spacing" textLength="64" x="616.5" y="116.7285">Calculator</text><line style="stroke:#181818;stroke-width:0.5;" x1="588.5" x2="682.5" y1="127" y2="127"/><line style="stroke:#181818;stroke-width:0.5;" x1="588.5" x2="682.5" y1="135" y2="135"/><text fill="#000000" font-family="sans-serif" font-size="14" lengthAdjust="spacing" textLength="66" x="593.5" y="153.5332">calculate()</text></g><!--MD5=[3fd616f346a44cd59a91eb10b19e157c]
class User--><g id="elem_User"><rect codeLine="53" fill="#F1F1F1" height="65.6094" id="User" rx="2.5" ry="2.5" style="stroke:#181818;stroke-width:0.5;" width="61" x="511" y="405.5"/><ellipse cx="526" cy="421.5" fill="#ADD1B2" rx="11" ry="11" style="stroke:#181818;stroke-width:1.0;"/><path d="M528.7656,417.375 Q528.9219,417.1563 529.1094,417.0469 Q529.2969,416.9375 529.5156,416.9375 Q529.8906,416.9375 530.125,417.1953 Q530.3594,417.4531 530.3594,418.0625 L530.3594,419.5156 Q530.3594,420.125 530.125,420.3906 Q529.8906,420.6563 529.5156,420.6563 Q529.1719,420.6563 528.9688,420.4531 Q528.7656,420.2656 528.6563,419.75 Q528.6094,419.3906 528.4219,419.2031 Q528.0938,418.8281 527.4844,418.6094 Q526.875,418.3906 526.25,418.3906 Q525.4844,418.3906 524.8516,418.7188 Q524.2188,419.0469 523.7266,419.7969 Q523.2344,420.5469 523.2344,421.5781 L523.2344,422.6719 Q523.2344,423.9063 524.125,424.7266 Q525.0156,425.5469 526.6094,425.5469 Q527.5469,425.5469 528.2031,425.2969 Q528.5938,425.1406 529.0156,424.7031 Q529.2813,424.4375 529.4297,424.3594 Q529.5781,424.2813 529.7813,424.2813 Q530.1094,424.2813 530.3672,424.5391 Q530.625,424.7969 530.625,425.1406 Q530.625,425.4844 530.2813,425.8906 Q529.7813,426.4688 528.9844,426.7969 Q527.9063,427.25 526.6094,427.25 Q525.0938,427.25 523.8906,426.625 Q522.9063,426.125 522.2188,425.0547 Q521.5313,423.9844 521.5313,422.7031 L521.5313,421.5469 Q521.5313,420.2188 522.1484,419.0703 Q522.7656,417.9219 523.8594,417.3047 Q524.9531,416.6875 526.1875,416.6875 Q526.9219,416.6875 527.5703,416.8516 Q528.2188,417.0156 528.7656,417.375 Z " fill="#000000"/><text fill="#000000" font-family="sans-serif" font-size="14" lengthAdjust="spacing" textLength="29" x="540" y="427.2285">User</text><line style="stroke:#181818;stroke-width:0.5;" x1="512" x2="571" y1="437.5" y2="437.5"/><text fill="#000000" font-family="sans-serif" font-size="14" lengthAdjust="spacing" textLength="24" x="517" y="456.0332">role</text><line style="stroke:#181818;stroke-width:0.5;" x1="512" x2="571" y1="463.1094" y2="463.1094"/></g><!--MD5=[a3638c1e5b65d287ecad7f06f5c0f212]
class Role--><g id="elem_Role"><rect codeLine="57" fill="#F1F1F1" height="83.2188" id="Role" rx="2.5" ry="2.5" style="stroke:#181818;stroke-width:0.5;" width="73" x="505" y="628"/><ellipse cx="525.4" cy="644" fill="#EB937F" rx="11" ry="11" style="stroke:#181818;stroke-width:1.0;"/><path d="M524.2594,644.7969 L524.2594,647.2969 L528.5875,647.2969 L528.5875,646.375 Q528.5875,645.7656 528.8297,645.5 Q529.0719,645.2344 529.4469,645.2344 Q529.8219,645.2344 530.0563,645.5 Q530.2906,645.7656 530.2906,646.375 L530.2906,649 L522.2906,649 Q521.6656,649 521.4078,648.7656 Q521.15,648.5313 521.15,648.1406 Q521.15,647.7656 521.4156,647.5313 Q521.6813,647.2969 522.2906,647.2969 L522.5563,647.2969 L522.5563,640.6406 L522.2906,640.6406 Q521.6656,640.6406 521.4078,640.4063 Q521.15,640.1719 521.15,639.7813 Q521.15,639.4063 521.4078,639.1719 Q521.6656,638.9375 522.2906,638.9375 L529.9156,638.9375 L529.9156,641.5313 Q529.9156,642.1406 529.6891,642.3984 Q529.4625,642.6563 529.0719,642.6563 Q528.6969,642.6563 528.4625,642.3984 Q528.2281,642.1406 528.2281,641.5313 L528.2281,640.6406 L524.2594,640.6406 L524.2594,643.0938 L525.7438,643.0938 Q525.7438,642.4375 525.8688,642.25 Q526.1344,641.8438 526.6031,641.8438 Q526.9781,641.8438 527.2125,642.1016 Q527.4469,642.3594 527.4469,642.9688 L527.4469,644.9375 Q527.4469,645.4844 527.3219,645.6719 Q527.0563,646.0625 526.6031,646.0625 Q526.1344,646.0625 525.8688,645.6563 Q525.7438,645.4688 525.7438,644.7969 L524.2594,644.7969 Z " fill="#000000"/><text fill="#000000" font-family="sans-serif" font-size="14" lengthAdjust="spacing" textLength="29" x="540.6" y="649.7285">Role</text><line style="stroke:#181818;stroke-width:0.5;" x1="506" x2="577" y1="660" y2="660"/><text fill="#000000" font-family="sans-serif" font-size="14" lengthAdjust="spacing" textLength="61" x="511" y="678.5332">Customer</text><text fill="#000000" font-family="sans-serif" font-size="14" lengthAdjust="spacing" textLength="39" x="511" y="696.1426">Admin</text><line style="stroke:#181818;stroke-width:0.5;" x1="506" x2="577" y1="703.2188" y2="703.2188"/></g><!--MD5=[70c37dc9bfbc8656942103c36f1181e4]
link User to Role--><g id="link_User_Role"><path codeLine="62" d="M541.5,471.82 C541.5,511.24 541.5,578.11 541.5,622.78 " fill="none" id="User-to-Role" style="stroke:#181818;stroke-width:1.0;"/><polygon fill="#181818" points="541.5,627.84,545.5,618.84,541.5,622.84,537.5,618.84,541.5,627.84" style="stroke:#181818;stroke-width:1.0;"/></g><!--MD5=[628e913ff14b9ac597ffc0eab88125e8]
reverse link Category to Product--><g id="link_Category_Product"><path codeLine="63" d="M131.43,438.5 C141.22,438.5 151.01,438.5 160.81,438.5 " fill="none" id="Category-backto-Product" style="stroke:#181818;stroke-width:1.0;"/><polygon fill="#181818" points="126.31,438.5,135.31,442.5,131.31,438.5,135.31,434.5,126.31,438.5" style="stroke:#181818;stroke-width:1.0;"/></g><!--MD5=[a0a8b763feb5bbdb0d4104108fb3bde6]
link Category to Image--><g id="link_Category_Image"><path codeLine="64" d="M88.82,497.58 C105,539.68 126.39,595.35 140.3,631.54 " fill="none" id="Category-to-Image" style="stroke:#181818;stroke-width:1.0;"/><polygon fill="#181818" points="142.12,636.29,142.6327,626.4545,140.3299,631.6214,135.163,629.3186,142.12,636.29" style="stroke:#181818;stroke-width:1.0;"/></g><!--MD5=[36b69398912f1cff2510a1764d3175d7]
link Product to Image--><g id="link_Product_Image"><path codeLine="65" d="M188.7984,579.2625 C188.7984,579.2625 176.65,610.87 171.67,623.82 " fill="none" id="Product-Image" style="stroke:#181818;stroke-width:1.0;"/><polygon fill="#181818" points="166.95,636.09,173.9103,629.122,168.7423,631.4223,166.442,626.2543,166.95,636.09" style="stroke:#181818;stroke-width:1.0;"/><line style="stroke:#181818;stroke-width:1.0;" x1="168.7423" x2="171.615" y1="631.4223" y2="623.96"/><polygon fill="#181818" points="193.1,568.06,187.215,572.2274,188.7984,579.2625,194.6834,575.0951,193.1,568.06" style="stroke:#181818;stroke-width:1.0;"/></g><!--MD5=[6f8b731c678b15fcafa87aa391fc1121]
link Order to User--><g id="link_Order_User"><path codeLine="66" d="M503.65,249.16 C514.48,303.07 526.5,362.84 534.02,400.29 " fill="none" id="Order-to-User" style="stroke:#181818;stroke-width:1.0;"/><polygon fill="#181818" points="535.01,405.19,537.1565,395.5779,534.0239,400.2882,529.3136,397.1556,535.01,405.19" style="stroke:#181818;stroke-width:1.0;"/></g><!--MD5=[06a6064c5cdd443a62b5eb59fb550c27]
link Order to OrderItem--><g id="link_Order_OrderItem"><path codeLine="67" d="M452.989,260.9254 C452.989,260.9254 435.03,350.26 428.25,384.01 " fill="none" id="Order-OrderItem" style="stroke:#181818;stroke-width:1.0;"/><polygon fill="#181818" points="425.68,396.81,431.3726,388.7729,426.6638,391.9077,423.5289,387.1989,425.68,396.81" style="stroke:#181818;stroke-width:1.0;"/><line style="stroke:#181818;stroke-width:1.0;" x1="426.6638" x2="428.24" y1="391.9077" y2="384.065"/><polygon fill="#181818" points="455.35,249.16,450.2477,254.2557,452.989,260.9254,458.0913,255.8297,455.35,249.16" style="stroke:#181818;stroke-width:1.0;"/></g><!--MD5=[2cbe48b61b454217c379a079f3d216fd]
reverse link Product to OrderItem--><g id="link_Product_OrderItem"><path codeLine="68" d="M329.33,438.5 C339.16,438.5 348.99,438.5 358.82,438.5 " fill="none" id="Product-backto-OrderItem" style="stroke:#181818;stroke-width:1.0;"/><polygon fill="#181818" points="324.19,438.5,333.19,442.5,329.19,438.5,333.19,434.5,324.19,438.5" style="stroke:#181818;stroke-width:1.0;"/></g><!--MD5=[d26808c2bbfa9fb5df92085e28270a1d]
@startuml
class Product{
    id: int
    is_active: bool
    available_quantity: int
    title: str
    subtitle: str
    images: List[Image]
    main_image: Image
    article: str
    description: str
    price: int
    parameters: Dict[str,str]
    category: List[Category]
}

class Image{
    image: byte
}


class Category{
    parent: Category
    image: Image
    icon_name: str
    name: str
}

class Order{
    order_id: int
    datetime: datetime
    customer_name: str
    customer_phone: str
    total_price: int
    customer: Customer
    items: List[OrderItem]
    adress: str
    comment: str
    self_pickup: bool
    delivery_price: int
}

class OrderItem{
    amount: int
    product: Product
}

class Calculator{
    calculate()
}



class User{
    role
}

enum Role{
    Customer
    Admin
}

User - -> Role
Product -left-> Category
    Category - -> Image
Product *- -> Image
Order - -> User
Order *- -> OrderItem
    OrderItem -left-> Product
@enduml

PlantUML version 1.2022.7(Mon Aug 22 20:01:30 MSK 2022)
(GPL source distribution)
Java Runtime: Java(TM) SE Runtime Environment
JVM: Java HotSpot(TM) 64-Bit Server VM
Default Encoding: Cp1251
Language: en
Country: US
--></g></svg>